<svg xmlns="http://www.w3.org/2000/svg" width="960" height="540" viewBox="0 0 960 540">
  <rect width="960" height="540" fill="#eef2f7"/>
  <rect x="48" y="42" width="598" height="456" rx="12" fill="#fff" stroke="#d1d5db"/>
  <rect x="84" y="88" width="220" height="96" rx="8" fill="#f9fafb" stroke="#d1d5db"/>
  <rect x="84" y="214" width="498" height="70" rx="8" fill="#f3f4f6"/>
  <rect x="84" y="312" width="360" height="70" rx="8" fill="#f3f4f6"/>
  <rect x="80" y="84" width="228" height="104" rx="10" fill="none" stroke="#2563eb" stroke-width="4"/>
  <text x="108" y="140" font-family="Arial, sans-serif" font-size="20" fill="#111827">参考卡片</text>
  <rect x="668" y="42" width="244" height="456" rx="14" fill="#111827"/>
  <text x="696" y="82" font-family="Arial, sans-serif" font-size="20" fill="#fff">元素复刻采集器</text>
  <rect x="694" y="112" width="190" height="34" rx="17" fill="#374151"/>
  <text x="724" y="135" font-family="Arial, sans-serif" font-size="14" fill="#e5e7eb">采集</text>
  <text x="696" y="180" font-family="Arial, sans-serif" font-size="15" fill="#d1d5db">当前目标</text>
  <rect x="696" y="198" width="188" height="54" rx="8" fill="#1f2937"/>
  <text x="714" y="230" font-family="Arial, sans-serif" font-size="14" fill="#fff">卡片 · div.card</text>
  <rect x="696" y="286" width="188" height="38" rx="8" fill="#2563eb"/>
  <text x="738" y="311" font-family="Arial, sans-serif" font-size="15" fill="#fff">复制给 AI</text>
  <text x="88" y="462" font-family="Arial, sans-serif" font-size="18" fill="#374151">点击页面元素，必要时点「选择父级」或「回退」，再复制提示词。</text>
</svg>
